<?xml version="1.0" standalone="no"?>
<!DOCTYPE svg PUBLIC "-//W3C//DTD SVG 20010904//EN"
 "http://www.w3.org/TR/2001/REC-SVG-20010904/DTD/svg10.dtd">
<svg version="1.0" xmlns="http://www.w3.org/2000/svg"
 width="1024.000000pt" height="1024.000000pt" viewBox="0 0 1024.000000 1024.000000"
 preserveAspectRatio="xMidYMid meet">
<metadata>
Created by potrace 1.16, written by Peter Selinger 2001-2019
</metadata>
<g transform="translate(0.000000,1024.000000) scale(0.100000,-0.100000)"
fill="#000000" stroke="none">
<path d="M5351 8109 c-9 -26 -74 -89 -90 -89 -6 0 -14 -6 -18 -12 -4 -7 -17
-20 -27 -28 -18 -14 -19 -13 -13 3 4 11 3 16 -4 12 -5 -4 -9 -14 -7 -23 3 -17
-61 -82 -81 -82 -12 0 -71 -53 -71 -64 0 -16 -46 -45 -62 -40 -12 3 -18 0 -19
-10 -1 -9 -2 -20 -3 -24 0 -4 -20 -26 -43 -48 -31 -29 -39 -44 -33 -54 6 -8
10 -10 10 -5 0 6 5 2 11 -7 5 -10 19 -18 30 -18 11 0 18 -4 15 -9 -12 -18 88
-45 169 -46 66 0 90 5 136 26 76 36 133 90 166 157 25 51 28 68 28 157 0 92
-2 104 -29 153 -39 70 -53 81 -65 51z"/>
<path d="M5970 7939 c-33 -13 -78 -66 -85 -100 -10 -45 12 -104 50 -138 61
-54 163 -38 205 32 69 113 -48 254 -170 206z"/>
<path d="M5705 7488 c-52 -28 -65 -50 -65 -106 0 -48 4 -58 33 -87 44 -44 77
-52 130 -31 46 17 87 67 87 105 0 38 -31 92 -64 112 -34 21 -90 24 -121 7z"/>
<path d="M3652 7158 l3 -203 50 0 c28 0 110 2 183 3 l132 2 0 200 0 200 -185
0 -185 0 2 -202z"/>
<path d="M6212 7158 l3 -203 180 3 180 2 3 200 2 200 -185 0 -185 0 2 -202z"/>
<path d="M5040 7134 c-68 -68 -736 -723 -947 -928 -68 -66 -123 -124 -123
-129 0 -4 87 -93 193 -196 760 -739 914 -888 930 -900 21 -16 24 -13 317 273
107 105 249 242 315 305 66 62 179 170 250 240 72 69 165 159 208 199 88 82
88 83 15 147 -45 40 -112 105 -712 690 -202 198 -371 361 -375 362 -3 1 -35
-27 -71 -63z m409 -732 l333 -327 -327 -320 c-181 -176 -334 -320 -342 -320
-7 0 -162 146 -343 324 l-331 323 37 37 c228 223 630 611 634 611 3 0 155
-148 339 -328z"/>
<path d="M3171 7098 c-56 -10 -104 -47 -130 -101 l-21 -43 0 -1549 0 -1549
-319 -321 c-369 -370 -376 -379 -376 -520 0 -60 6 -91 22 -127 30 -66 96 -133
162 -165 l56 -28 2535 0 2535 0 57 23 c72 29 142 98 177 172 21 45 25 70 25
135 0 120 -22 155 -224 360 -93 94 -236 239 -319 324 l-151 155 0 1530 c0
1049 -3 1543 -11 1569 -12 46 -68 110 -109 127 -42 17 -134 8 -168 -17 -59
-44 -67 -72 -72 -263 l-5 -175 -171 -2 -171 -2 -39 -33 c-21 -18 -71 -66 -110
-107 -75 -78 -76 -78 -124 -37 -14 12 -23 18 -20 14 9 -12 276 -281 334 -336
35 -34 53 -58 49 -66 -5 -6 -78 -76 -163 -156 -85 -79 -211 -198 -280 -265
-144 -139 -765 -741 -920 -892 l-106 -102 -389 376 c-215 207 -506 489 -649
627 -142 138 -262 253 -267 254 -5 2 -9 -94 -9 -226 l0 -229 217 -209 c120
-115 290 -280 378 -366 88 -87 161 -158 163 -158 1 0 88 -85 194 -189 176
-173 189 -188 160 -186 -17 1 -29 -2 -26 -6 6 -10 -37 -50 -50 -47 -6 2 -12
-1 -13 -6 -2 -15 -26 -26 -55 -26 -16 0 -28 -4 -28 -10 0 -5 -7 -10 -15 -10
-8 0 -24 -9 -34 -19 -16 -16 -29 -19 -74 -14 -48 5 -55 3 -59 -13 -3 -17 -8
-14 -41 17 -29 29 -37 43 -37 73 0 35 1 36 40 36 22 0 40 -4 40 -10 0 -5 18
-10 40 -10 22 0 40 5 40 10 0 6 14 10 30 10 21 0 30 5 30 16 0 20 -24 44 -44
44 -9 0 -16 5 -16 10 0 6 -18 10 -40 10 l-40 0 0 40 c0 33 -3 40 -20 40 -17 0
-20 7 -20 40 0 22 -4 40 -10 40 -5 0 -10 15 -10 34 0 21 -6 36 -15 40 -8 3
-15 10 -15 16 0 5 7 10 15 10 9 0 15 9 15 25 0 31 -18 33 -29 4 -7 -20 -9 -20
-39 17 -25 30 -34 36 -44 26 -16 -16 -65 -16 -70 0 -3 9 -10 8 -22 -5 -10 -9
-27 -22 -38 -28 -11 -6 -17 -17 -14 -25 3 -8 -1 -14 -8 -14 -20 0 -68 -51 -62
-66 3 -8 1 -16 -4 -19 -4 -3 -10 0 -12 5 -2 6 -27 -12 -57 -40 -29 -27 -56
-50 -60 -50 -3 -1 -17 -15 -31 -32 -14 -17 -54 -58 -89 -92 -35 -33 -94 -91
-130 -127 -36 -36 -94 -91 -128 -122 l-63 -57 -105 0 -105 0 0 1203 c0 661 -3
1321 -7 1465 -6 245 -8 266 -27 295 -44 64 -106 89 -185 75z m3861 -3588 l193
-189 -2115 0 -2115 -1 195 190 195 189 1727 1 1727 0 193 -190z"/>
<path d="M2594 6381 c-52 -23 -68 -56 -62 -122 5 -44 11 -58 38 -82 30 -26 38
-29 86 -25 65 6 99 33 115 91 8 32 7 45 -9 75 -36 70 -99 94 -168 63z"/>
<path d="M2573 5601 c-52 -13 -83 -40 -105 -88 -36 -82 -14 -159 63 -211 28
-20 44 -23 91 -20 99 7 165 82 156 178 -10 101 -104 166 -205 141z"/>
<path d="M7540 5594 c-34 -14 -79 -68 -90 -110 -15 -54 -3 -107 35 -152 33
-40 75 -55 134 -50 59 6 105 36 131 88 35 69 21 138 -39 195 -27 25 -40 29
-94 32 -34 1 -69 0 -77 -3z"/>
<path d="M7530 4727 c-102 -36 -106 -200 -5 -243 45 -19 61 -18 110 6 70 34
93 103 59 175 -28 60 -97 86 -164 62z"/>
</g>
</svg>
